<?xml version="1.0" encoding="utf-8"?>
<!-- Generator: Adobe Illustrator 26.0.2, SVG Export Plug-In . SVG Version: 6.00 Build 0)  -->
<svg version="1.1" id="图层_1" xmlns="http://www.w3.org/2000/svg" xmlns:xlink="http://www.w3.org/1999/xlink" x="0px" y="0px"
	 viewBox="0 0 1024 1024" style="enable-background:new 0 0 1024 1024;" xml:space="preserve">
<style type="text/css">
	.st0{fill:#020202;}
</style>
<path class="st0" d="M770.4,631l0-0.1l-0.2-0.7l-0.6-0.3l-260.4,0.1l0,0l-0.6-0.2l-0.2-0.6l-0.2-200.1l0-0.1l0.1,0h487l0.9,0.3
	l0.5,0.9l2.9,21.7l2.1,21.6l1.2,21.4l0.3,21.3l-0.5,21.1l-1.4,21l-2.2,20.8l-3.1,20.7l0,0l0,0l-4.8,24.8l-6.1,24.6l-7.4,24.4
	l-8.6,24.2l-8.8,21.4l-9.7,20.9l-10.7,20.5l-11.6,19.9l-12.5,19.3l-13.4,18.7l-14.2,18l-15.1,17.3l-18,18.7l-19,17.7l-20,16.7
	l-20.9,15.7l-21.7,14.6L751,950.7l-23.1,12.2L704,974l-14,5.8l-14.1,5.3l-14.2,4.9l-14.2,4.4l-14.3,4l-14.4,3.5l-14.5,3l-14.5,2.6
	l0,0l0,0l0,0l0,0l0,0l-17.5,2.5l-17.7,1.8l-17.8,1.2l-17.9,0.5l-18-0.2l-18.1-0.8l-18.2-1.5l-18.3-2.2l-14.1-2.1l-14-2.6l-14-3
	l-13.8-3.4l-13.8-3.8l-13.7-4.2l-13.6-4.6l-13.5-5l-13.4-5.5l-13.3-5.9l-13.1-6.2l-12.9-6.6l-12.7-7l-12.5-7.4l-12.3-7.7l-12.1-8.1
	l-11.8-8.4l-11.6-8.7l-11.4-9.1l-11.1-9.4l-10.8-9.7l-10.5-10L156,860.1l-9.9-10.6l-9.5-10.7l-9.2-11l-8.8-11.3l-8.5-11.6l-8.1-11.8
	l-7.8-12l-7.3-12.1l-7-12.3L71,739.7l-8.3-17.4l-7.6-17.6l-6.9-17.8l-6.3-18.1l-5.6-18.3l-4.9-18.4l-4.2-18.6l-3.5-18.7L21.1,576
	l-2-18.9l-1.3-19l-0.6-18.9l0.1-18.9l0.8-18.9l1.6-18.9l3.1-24.3l4.2-24.2l5.4-23.9l6.6-23.7l7.3-22.3l8.4-22.2l9.5-22.1l10.5-22
	l10.9-20.4l11.9-19.8l12.9-19.4l13.8-18.7l14.7-18.1l15.6-17.4l16.4-16.6l17.1-15.8l17.9-15.1l18.6-14.2l19.3-13.4l19.9-12.5
	l20.5-11.6l21-10.6l21.4-9.5l21.9-8.6l21.6-7.3l21.9-6.2l22.3-5.1l22.4-4l22.8-3l22.9-1.9l23.2-0.8l23.2,0.3L552,9.5l23.3,2.5
	l23.2,3.6l23.1,4.7l23,5.8l22.8,6.8l22.5,7.9l22.2,8.9l17.3,7.8l16.9,8.4l16.5,9l16.1,9.7l0,0l0,0l12.5,8.1l12.2,8.5l12,8.9
	l11.7,9.3l11.5,9.7l11.2,10.1l11,10.5l10.7,10.9l0.3,0.8l-0.3,0.8L716.2,316.6l-0.8,0.4l-0.8-0.4l-11.1-10.2l-11.5-9.6l-11.8-9
	l-12.2-8.5l-12.5-7.8l-12.7-7.2l-12.8-6.4l-13.1-5.8l-13.2-5l-13.4-4.4l-13.4-3.6l-13.6-2.9l-13.5-2.2l-13.7-1.4l-13.6-0.7
	l-13.7,0.1l-12.7,0.7l-12.7,1.4l-12.6,2l-12.6,2.6L439,244l-18.6,6.6l0,0l0,0l0,0l-11,4.6l-10.8,5.1l-10.6,5.6l-10.4,6.1l-10.2,6.6
	l-10,7.1l-9.8,7.6l-9.6,8.1l-7.8,7.1l-7.5,7.4l-10.9,11.9L302,340.1l-9.4,13.1l-8.6,13.6l-7.7,14.2l-6.9,14.6l-6.1,15.1l-5.2,15.5
	l-4.3,15.9l-3.4,16.1l-2.5,16.3l-1.6,16.5l-0.6,16.7l0.3,16.7l1.3,16.6l2.2,16.6l3.2,16.7l4.2,16.4l5.2,16.2l6.2,15.9l7.1,15.5l8,15
	l8.9,14.4l9.7,13.9l10.5,13.2l11.3,12.6l11.9,11.7l12.6,11l13.3,10.1l13.9,9.4l14.3,8.4l14.9,7.5l11.2,4.9l11.4,4.4l11.5,3.9
	l11.6,3.4l11.7,2.9l11.8,2.4l11.9,1.8l11.9,1.3l11.7,0.7l11.7,0.2l11.7-0.3l11.7-0.9l11.6-1.5l11.6-2l11.3-2.5l11.2-3.1l9.8-3.2
	l9.8-3.6l11.9-5l11.6-5.4l11.2-5.7l10.9-6.1l10.6-6.5l10.3-6.9l10-7.3l9.6-7.7l0,0l0,0l0,0l10-8.7l9.6-9.2l9.2-9.6l8.8-10.1
	l8.5-10.5l8.1-11l7.7-11.4l7.3-11.9L770.4,631z M473.2,73.4l9.2,14.8l11.3,16.8l13.6,18.8l19.4,26l15.2,20.3l0.9,0.7l1.1-0.2
	l62-29.8l0.8-1l-0.1-1.3l0,0l-0.1-0.1l-14-20.3L578,98.4l-14.8-19L548,61l-6.1-6.5l-6.3-5.6l-6.7-4.9l-6.8-3.9l-7-3l-6.8-1.9l-6.9-1
	l-7,0.1l-7.7,1.3l-7.4,2.5l-5,2.9l-2.1,1.9l-1.6,2.1l-1.5,2.8l-0.9,3l-0.4,3.4l0.1,3.5l0.6,4l1.1,3.9l1.6,4.1L473.2,73.4z
	 M617.7,134.6l0.9,0.7l1.1-0.1l49.8-24.2L719.6,87l1.4-1.3l0.3-1.2l-0.6-2.1l-1.7-2.3l-2.7-2.5l-3.9-2.7l-11-6.1l-13.4-6l-20.3-7.2
	l-20-6l-19.8-4.9L608.4,41l-2.1-0.3l-12.1-1.6l-8.5,0l-3.6,0.7l-2.9,1l-2.5,1.4l-2.1,1.9l-1.3,1.8l-0.9,2.2l-0.8,5.1l0.3,4l1.2,4.6
	l2.1,5.2l3.1,5.8l18.4,30.3L617.7,134.6z M282.5,156.9l-0.1,0.1v0.1l0.9,0.9l86.7,14.8l1.1-0.2l0.8-0.8l13.1-27.4l23.2-51.3l4-10
	l1.9-7.3l0.4-6.5l-0.4-3l-0.9-2.9l-1.4-3l-2.1-2.9l-2.1-1.8l-2.9-0.9l-3.5,0.1l-3.9,1.2l-3.8,2.1l-12.2,9l-12.5,10.7L282.5,156.9z
	 M256,152l25.8-23.3l48.2-43.9l7.6-7.6l6.4-7.7l0.1-0.2l0.3-1l-0.1-1l-0.5-0.9l-0.8-0.6l-2.5-0.7l-3.2,0.5l-12.1,4.6L313.5,75
	L302,80.3l-11.2,5.6l-11,6l-10.6,6.3l-10.4,6.6l-10.1,7l-5.4,4.3l-4.8,4.6l-4,4.6l-3.1,4.5l-0.2,0.4l-1.6,3.8l-0.9,4.2l-0.2,4.6
	l0.5,5l0.5,1l1,0.5l23.8,3.4l1-0.1L256,152z M524.7,179.6L524.7,179.6l0.5-0.6l-0.2-0.8l-29.1-40.5L466,98.2l-3-3.5l-2.9-2.5l-3-1.7
	l-3-0.7l-4.1-0.1l-3.8,0.3l-3.5,0.7l-3.2,1.2l-4.1,2.3l-3.7,3.1l-3.5,4l-3.4,5.1L406.1,139l-19.1,35.7l-0.1,0.9l0.7,0.4l47.1,8.6
	l46.1,7.6l7.5,0.7l7.2-0.5l6-1.3l6.1-2.2l6.5-3.1l9.2-5.3L524.7,179.6z M628,148.8l30.6,45.3l36.3,52.3l4.1,5.5l4.1,4.8l4,4l4,3.2
	l4.1,2.5l3.9,1.7l4,1l4.1,0.2l3.8-0.5l3.9-1.2l3.7-1.9l3.8-2.7l11.3-9.9l4.6-4.8l4-4.7l3.5-4.8l3.1-5l2.6-5l2.1-5.3l1.9-6.5l1.3-7
	l1.6-16.1l0.5-15.7l-0.5-15.4l-1.5-15l-1.3-6.6l-1.9-6.2l-2.5-5.7l-3.2-5.3l0,0l-4.8-5.9l-6-5.1l-3.3-2l-3.3-1.6l-5-1.6l-5.2-0.8
	l-5.5,0l-6.1,0.7l-6.4,1.4l-7,2.1l-18.7,7.3l-7,2.9l-31.8,13.3l-29.5,13l-0.5,0.6L628,148.8L628,148.8z M810.3,131.9l-5.8-4.6
	l-5.9-3.8l-1.7-0.3l-1.5,0.9l-2.9,4.7l-1.8,5.8l-0.8,7l0,10l0.9,19l1.7,16l0.6,3.3l1.9,6l2.8,5.8l1,1.3l1.1,0.6l0,0l0,0l1.2-0.2
	l1.4-0.9l19.9-18.4l20-20.8l0.3-0.7l-0.3-0.7l-15.9-15.3L810.3,131.9z M678.6,257.1l0.8,0.2l-0.2-0.8l-5.9-10.3l-57.7-90.6l-0.9-0.7
	l-1.1,0l-26.3,10.7l-25.8,10l-3.1,1.4l-2.7,1.9l-0.1,0.1l-0.5,0.7l0.3,0.8l8.5,10.3l9.2,9.2l9.8,8l10.5,6.9l10.1,5.2l39.4,18.7
	L678.6,257.1z M233.4,172l0.5-0.9l-0.9-0.4l-7.6-0.6l-7.2,0l-6.6,0.6l-5.9,1.2l-5.4,1.8l-4.5,2.3l-3.9,2.9l-3.3,3.6l-2.5,4l-1.8,4.8
	l-1,5.2l-0.2,5.9l0.6,14.5l0.4,0.9l0.9-0.4l23.9-22.9L233.4,172z M189.4,244.9l-0.2,3.6l0.4,3.8l16.1,87.1l0,0.1l0.6,0.6h0.9
	l46.8-22l21-10.5l16-9.4l8.8-6.6l8.2-8l7.7-9.5l7.1-10.9l20.3-35.7l20-37.5l0-0.1l-0.1-0.6l-0.5-0.3l-97.4-14.2l-1,0.1l-0.8,0.4
	l-7.1,6l-50.9,47.2l-15,14.6l-0.6,0.8L189.4,244.9z M543.8,191.6l-1.1-0.8h-1.3l-1.1,0.8l-0.5,1.3l-0.2,5.4l0.3,1.1l4.3,8.2l0.7,0.8
	l1,0.4l7.1,1l1-0.1l0.9-0.6l0.5-0.9l0.1-1l-0.4-1L543.8,191.6z M341.3,269.2l17.8-11.8l18.3-10.9l11.8-6.3l12-5.9l12.2-5.6l12.4-5.2
	l28.7-11.2l1.8-1.5l0.5-1.5l-0.2-1.6l-0.8-1.5l-1.4-1.1l-2.9-1.1l-2.9-0.7l-69.8-11.2l-1.2,0.1l-0.9,0.9l-18.8,37.2L339.8,268
	l-0.5,1.4l0.1,0.7l0,0l0,0l0.7,0L341.3,269.2z M85.3,308.8l0,0.5l0.4,0.3l0.9,0l0.7-0.4l36.7-33.2l38.3-36.4l1.4-1.7l0.8-1.9l0,0
	l0.1-2.4l-0.7-2.7l-3.3-6.4l-3.8-4.5l-1.9-1.4l-2.1-1l-4.7-1l-4.8,0.5l-2.3,0.8l-2.1,1.3l-4.8,4.1l-4.8,5.3l-5,6.5l-5.8,8.7
	l-9.9,16.1L99.7,276l-7.7,16.3L85.3,308.8z M171.3,261.1l-20.9,19.1L122,306.9l-9.3,8.9l-9.4,9.5l-7.6,8.9l-3.4,5.2l-2.6,5.6
	l-1.8,5.9l-0.9,6.1l0,6l0.9,5.9l1.7,5.5l2.7,5.2l3.5,4.7l1.2,1l1.3,0.6l0,0l1.4,0.1l1.5-0.4l43.6-17.8l44.5-19l0.9-0.8l0.2-1.2
	l-16.2-84.7l-0.3-1.1l-0.6-0.5l0,0l-0.7,0.1L171.3,261.1z M209.1,356.7l13.8,69.2l1.7,6.9l2.1,6.2l0.9,1.7l0.8,0.6l0,0l0,0l0.8-0.6
	l0.7-1.8l4.1-14.1l4.8-14.1l5.4-13.8l6.1-13.9l6.7-13.8l7.4-14l8.2-14.2l9-14.4l0.5-1l0-0.6l0,0l-0.6-0.2l-1.1,0.2l-9.5,3.5
	l-60.4,26.6l-0.8,0.8L209.1,356.7z M193.4,363.2l-0.2-0.4l-0.5-0.1l-4.1,1.2l-38.9,19.3l-38.4,20.5L104,408l-5.9,3.9l-4.6,3.6
	l-3.2,3.3l-2.8,3.8l-2.1,3.9l-1.3,3.9l-0.6,3.9l0,0l0,3.1l0.4,3.1l2.1,6.2l2.4,3.7l3.9,4.1l5.4,4.6l6.9,5l17.3,11.4l23.9,14.7
	l16.8,10.2l1.9,0.6l1.9-0.6l1.1-0.7l15.9-11.1l5.6-4.6l4.8-4.5l4.1-4.6l3.4-4.7l2.8-5l2.1-5l1.5-5.6l0.8-6.1l-0.1-5.5l-1-8.2
	l-4.4-24.6L193.4,363.2z M63.3,366.1l-13.4,36.4v0l0,0l0,0l2,0.3l2.2-0.3l2.3-1l2.3-1.7l2.2-2.3l2-2.8l3.3-6.6l0.2-0.6l1.8-7.1
	l0.2-3.4l-0.2-3.2l-0.7-2.8l-1-2.3l-1.5-1.7L63.3,366.1L63.3,366.1L63.3,366.1L63.3,366.1z M953.3,491l8.2-7.1l5.8-5.8l4.3-5.4
	l2.8-5l0.4-1.5l-0.2-1.6l-0.7-1.5l-3-3.1l-5.1-3.1l-6-2.4l-11.8-2.7l-11.2-1.1l-48.5-0.7l-5.4,0.3l-5.4,0.8l-4.9,1.3l-4.6,1.8
	l-3.9,2.2l-3.4,2.7l-2.8,3l-2.2,3.5l-1.3,3.2l-0.8,3.5l-0.3,3.7l0.2,4l1.3,8.9l1.9,8.4l2.4,7.4l2.9,6.5l3.2,5.4l3.6,4.2l4.2,3.3
	l4.4,2.2l3.9,1l4.3,0.3l7.9-0.7l7.6-1.7l7.4-2.7l7.2-3.8l8.6-5.5l9.2-6.5L953.3,491z M577.6,496.1l9.2-8.7l8.4-9.3l1.1-1.3l4.3-5.3
	l2.6-4.3l1.1-3.7l-0.4-3.1l-1.6-2.2l-3.7-2.8l-3.6-2l-3.7-1.3l-4.3-0.8l-12.7-0.5h-3l-40.2-0.1l-0.7,0.7v0l-0.1,9.3l-0.1,17.3
	l0.5,12.5l0.5,2.5l1,2.5l1.5,2.2l2.1,2.1l2.5,1.8l3.1,1.6l3.3,1.1l3.7,0.8l3.6,0.3l5.7-0.3l5.4-1.1l0,0l0,0l0,0l3.7-1.3l3.6-1.8
	l3.5-2.2L577.6,496.1z M712.6,531.3l0.9,0.5l1-0.3l65.8-51l10-8.4l8.3-8.1l1.2-1.6l0.5-1.7l0,0l-0.2-2.2l-0.8-1.9l-1.1-1.6l-2.5-2.1
	l-3.5-1.4l-4.3-0.6l-6-0.1l-2.1,0l-105,0.2l-5,0.8l-4.9,2.3l-1.9,1.5l-1.5,1.8l-1,1.8l-0.6,2l-0.1,2.3l0.6,2.5l2.9,6.3l3.7,5.6
	l22.1,27L712.6,531.3z M65.6,552.6l2,0.4l2-0.1l8.4-2.5l8.6-3.7l16.1-8.4l16-8.8l16-9.3l15.9-9.7l0.7-0.8l-0.7-0.8l-29.4-15
	l-30.4-15l-10.1-5.3L70,467.2l-1.9-0.5l-3.2,0.6l-2.1,1l-1.9,1.4l-3.3,4.3l-3.2,6.4l-2.3,6.4l-1.7,6.9l-0.9,7.4l-0.2,8.2l0.5,9.5
	l1.8,12.7l1.3,5.1l1.7,4.5l2,3.9l2.2,3l2.6,2.4l3,1.7L65.6,552.6z M723.6,541.7l-0.1,0.7l0,0l31.1,27.3l31.5,26.3l13.5,10.2l1.2,0
	l20.2-13.1l18.9-13.2l6.5-5.5l5.3-6.1l4.1-6.7l2.9-7.2l1.3-5.8l0.6-6l-0.3-6.2l-1-6.3l-2-7.5l-2.5-7.4l-3.1-7.5l-3.6-7.3l-4.2-7.3
	l-4.6-7.1l-5.1-6.9l-5.5-6.6l-2.5-2.1l-2.6-0.8l-2.3,0.5l-5.2,2.5l-4.8,2.9l-12.5,8.5l-13.7,9.9l-36.5,28.2L723.6,541.7z
	 M701.9,538.9l0.4-0.6l-0.3-0.6l-24.7-22.3L651,492.7l-8-6.2l-11.4-7.2l-2.8-0.7l-2.8,0.7l-7.4,4.4l-7.7,5.2l-19.5,15.1l-4.3,3.5
	l-6.8,6.3l-2.5,3.1l-1.9,3l-0.7,1.3l-1,3l-0.6,3.1l-0.2,3.4l0.2,3.4l1.8,7.6l3.5,8.2l5.4,9l7,9.3l8.4,9.2l8.8,8.1l4.6,3.5l3.9,2.2
	l3.6,1.1l3.3,0.2l3-0.7l3.1-1.6l17.8-11.8l17.9-12.5l18-13.1L701.9,538.9z M218.3,525.1l0.1-0.1l0-0.2l-2.2-35.9l-0.3-0.5h-0.6
	l-35.6,20.5l-0.2,0.1l-0.1,0.5l0.3,0.5l35.1,19.7l0.9-0.2L218.3,525.1z M978.9,493.8l-6.5,1.2l-7.3,2.3l-7.6,3.2l-7.5,4l-7.3,4.6
	l-6.7,5.1l-5.7,5.2l-4.7,5.3l-2.1,3l-1.7,3.1l-1.2,3.2l-0.8,3.3l0,0l0,0l0,0l-0.3,6.2l1.1,6.4l1.1,3.3l1.5,2.9l1.8,2.4l2.2,2l0,0
	l0,0l3.1,1.9l3.6,1.2l10,1.5l10.4,0l5.5-0.7l4.8-1.3l4.2-2l3.6-2.6l3.8-4.2l2.9-5.6l2-6.7l1.2-8.1l0.6-10.2v-9.8l-0.7-9.4l-1.3-9
	l-0.7-1.2L978.9,493.8z M166.8,516.2l-0.7-0.2l-0.7,0.2l-54,34.2l-7.2,4.9l-6,4.7l-5,4.6l-4.1,4.6l-3,4.4l-2,4.2l-1,4.3l0.1,4
	l1.1,3.9l2.2,4l4.2,5.1l4.9,4.8l5.6,4.5l6.4,4.1l13.3,7.5l14.8,7.7l39.6,18.9l17.3,8.1l0.1,0l0.5,0l0.3-0.4l14.9-68.6l1.6-8.8
	l1.2-9.1l0-5.2l-1.2-5.5l-2.3-5.4l-3.4-5.5l-4.6-5.7l-5.6-5.5l-6.6-5.4l-7.1-4.8L166.8,516.2z M714.7,550.2l-0.8-0.4l-0.9,0.3
	l-22.3,18.5l-20.2,18.7l-3.8,4.4l-2.9,4.8l0,0l-1.7,4.3l-1.1,4.7l0.3,1.4l1.1,0.8l1.9,0.4l5.6,0.5l48,0.1l51.4-0.7l1.4-0.2l0.6-0.5
	l0,0l-0.1-0.8l-0.9-1.1L714.7,550.2z M531.9,608.9l56,0l6-0.4l5.6-1.3l0.4-0.2l1-0.8l0.6-1.1l0.1-1.3l-0.5-1.2l-12-16.5l-12.7-16.3
	L573,566l-3.7-3.4l0,0l0,0l0,0l-4.3-3.3l-4.7-2.8l-5.1-2.4l-5.4-1.9l-5.5-1.2l-4.9-0.2l-3.9,0.9l-2.8,1.9l-1.1,1.5l-0.8,1.8
	l-0.6,4.4l0.2,46.1l0.4,1.1L531.9,608.9z M947.1,693.3l4.7-9.6l4.3-10l4-10.6l3.5-10.9l3.1-11.2l2.6-11.3l2.1-11.4l1.5-11.4v-3.3
	l-0.8-3l-1.2-2.2l-1.8-2l-6.8-5.7l-7.3-4.9l0,0l-7-3.8l-7.4-3.2l-7.8-2.5l-8.1-1.9l-5.4-0.6l-4.7,0.4l-4.2,1.4l-3.4,2.3l-3,3.6
	l-1.9,4.6l-0.7,5.5l0.5,6.2l3.2,17.2l3.8,17.1l0,0l0,0l5.9,22l7,21.7l2,5l2.4,4.6l2.8,4.2l3.2,3.9l0,0l0,0l5.5,5.2l1,0.5l1.1,0.1
	l2.7-0.7l0,0l2.7-1.9L947.1,693.3z M274.8,688.5l1.3,0.3l0.6-0.2l0-0.7l-0.6-1.2l-1.4-2.2l-7.5-12.4l-7-12.6l-6.5-12.9l-6.1-13.2
	l-5.6-13.5l-5.2-13.7l-4.7-14.1l-4.3-14.3l-0.5-1.5l-0.5-0.5l0,0l-0.5,0.5l-0.5,1.5l-18.1,81.8l0.1,1.4l1.1,0.8l13.4,5.2l18.5,7.7
	l19.5,8.1L274.8,688.5z M810.1,658.4l13.4,69l0.4,0.6l0.7,0.3l55.3,0.8l7.5-0.2l5.7-0.8l4.6-1.5l3.7-2.2l2.3-2.2l2-2.7l1.6-3.2
	l1.4-3.8l1.1-5.7l-0.1-6.2l-2.4-15.7l-3.5-16l-14.5-57.2l-1.7-5.6l-2.1-5.2l-2.4-4.6l-2.8-4.1l-3-3.3l-3.3-2.7l-3.4-1.9l-3.7-1.3
	l-5.4-0.6l-5.9,0.9l-6.2,2.4l-6.2,3.8l-8.9,7.1l-8.4,8.1l-8,9.2l-7.5,10.3l-1.3,1.8l-2.7,4.1l-0.6,1.6l-0.2,1.7l0.9,7.8l2.2,11.1
	L810.1,658.4z M65.1,665.3l0.5,0.5h0.6l0,0l0,0l0.9-0.7l0.5-1.1l1.7-9.2l0.8-8.9l0-8.6l-0.9-8.2l-0.6-1.9l-0.9-1.7l-1.3-1.5
	l-1.6-1.1l-11.3-6.2l-1.6-0.7l-1,0.1l-0.4,0.9l0.2,1.7l6.6,23.5L65.1,665.3z M188.4,671.3l-39.1-17.7l-43.1-18.9l-3.4-0.9l-3,0.2
	l-2.2,0.9l-1.9,1.4l-1.8,2.1l-1.6,2.5l-1.5,3.3l-1.2,3.8l-1.3,7.9L88.2,670l1.1,15.4l2.3,16.9l3.5,18.7l2.1,8.9l2.5,8.6l2.9,8.3
	l3.3,8l3.7,7.7l4.1,7.4l4.5,7.1l4.9,6.9l0,0l0,0l6.8,8.3l3.9,3.3l2,1l2.1,0.5l0,0l3.5-0.2l3.6-1.5l6.6-4.3l5.4-4.7l4.1-5.1l2.9-5.4
	l3.4-10.6l3.9-15.5l18.2-76.8l-0.1-1L188.4,671.3z M808.5,727.3l-15.9-76.8l-1.4-4.2l-0.9-1.6l-0.6-0.5l-0.6,0.5l-10,16.5l-9.8,14.9
	l-9.5,13.3l-9.2,11.7l-22.9,27.2l-0.3,1.2l0.8,0.9l0.5,0.1l79-2.3h0.1l0.5-0.3L808.5,727.3z M205.1,678.7h-0.7l-0.4,0.5l0,0.1
	l-11.4,50.1L182,778.5l-3,15.6l-1.1,11.5l0,5.4l0.5,5l0.9,4.8l1.4,4.8l2.8,6.7l3.8,6.3l4.6,5.3l5.2,4.1l5.8,3l3.7,1.1l3.9,0.7
	l3.9,0.2l4.1-0.2l137.4-15.4l1-0.3l0.6-0.5l0,0l0.1-0.8l-0.3-1l-40.3-85l-4-7.6l-4.2-6.5l-4.6-5.6l-4.8-4.5l-7.8-5.8l-8.8-5.5
	l-9.7-5.3l-10.6-5L205.1,678.7z M848.9,846l0.1,0.2l0.5,0.3l0.6-0.2l11.5-11l10.4-11l9.1-10.7l8-10.7l6.9-10.5l5.7-10.5l4.6-10.3
	l3.4-10.2l1.4-6.7l0.2-5.9l-1-4.4l-1-1.7l-1.3-1.4l-1.5-1l-1.9-0.7l-4.4-0.4l-70.5,4.5l-1.1,0.5l-0.2,1.2l1.7,10.5L848.9,846z
	 M705.2,762.4l-6.8,9.7l-6.4,10.7l-13.4,24.6L666.9,830l-1,1.9l-3.5,7.3l-1.9,5.6l-0.6,4.8l0.6,4.4l1.4,3.1l2.3,3l2.3,2.2l2.5,1.8
	l4.3,2.1l5,1.3l5.8,0.5l6.8-0.3l104.7-9.2l8.9-1.3l7-2.1l4.1-2.2l3.4-2.7l2.8-3.2l2.4-3.8l1.8-4.2l1.3-4.7l0.6-4.9l0-5.1l-0.7-5.1
	l-15.1-72.4l-0.8-1.2l-1.4-0.4l-71.2,4.3l-10.2,0.9l-7.1,1.4l-6.1,2.2l-5.1,3.2l-2.6,2.4L705.2,762.4z M338.7,753.2l-0.1,0l-0.3,0.4
	l17.5,39.9l18.8,39.9l0.6,0.7l0.9,0.1l64.2-9.4l7.5-1.9l3-1.4l2.2-1.6l2.2-2.7l0.6-1.5l0.1-1.4l-0.6-2.2l-1.5-1.9l-2.4-1.7l-2.8-1.3
	l-19.4-7.1l-19.6-7.7l-17.4-7.8l-17.6-9.1l-17.8-10.5L338.7,753.2z M560.7,842.9l-0.3,0.8l0.6,0.7l15.4,8.2l7.7,3.4l7.6,3l4.6,1.4
	l4.5,0.8l4.4,0.2l4.3-0.5l0,0l5.6-1.5l5.4-2.6l5.5-3.5l5.1-3.9l4.7-4.2l4.3-4.5l0,0l0,0l0,0l4.9-6.1l4.3-6.6l18.8-33.3l18-33.6
	l0.4-1.5L685,760l-17.4,10.5l-17.9,10.1l-18.3,9.8l-18.8,9.4l-9.2,4.7l-7.1,4.1l-6.1,4.2l-5.2,4.4l-12,12L560.7,842.9z M559.5,815.4
	l0.6-1.3l-0.1-1.4l-1.2-1.4l-1.9-0.3l-11.2,2.1l-1.1,0.5l-0.8,0.9l-2.3,4.2l-0.3,1.7l1.3,8.4l0.5,1.2l1,0.8l1.3,0.3l1.3-0.4l0.7-0.6
	L559.5,815.4z M529.4,845.9l-11.9-6.3l-8.8-3.7l-8.4-2.1l-8.1-0.6l-4.6,0.3l-54.3,7.4l-50.9,7.6l-0.8,0.5l-0.1,0.9l0.1,0.1l11,23.1
	l13.7,27.2l7.9,14.6L422,928l2.8,3.5l3.3,2.7l0,0l2.7,1.5l3,1.1l3.2,0.7l3.5,0.3l3.1-0.1l2.7-0.5l2.4-0.9l2-1.3l0,0l0.2-0.2l7.6-7.2
	l8.1-8.6l56.3-63.4l6.8-8.4l0-0.1l0.1-0.7L529.4,845.9z M368.3,966.1l0.9,0.3l9.3,2.4l6.8,0.9l5.6-0.4l2.4-0.7l2.3-1.1l2.3-1.7
	l2.1-2.3l1.7-2.8l1.5-3.4l0.8-3l0.4-3.2l-0.3-7.6l-1.9-9l-3.5-10.3l-6.8-16.8l-7.6-17.7l-17.8-38.3l-0.5-0.5l-0.7-0.1l-95.3,12.7
	l-9.1,1.7l-7.6,2.7l-6.2,3.6l-2.6,2.2l-2.3,2.5l-3.1,4.7l-1.4,4l-0.1,3.5l0.7,3.5l1.5,3.6l2.4,3.8l3.3,4l4,4l5,4.2l5.7,4.2l12.2,8.1
	l12.6,7.6l12.9,7.1l13.3,6.6L325,951l14.1,5.5l14.4,5L368.3,966.1z M500.8,906.6l-15.4,16.6l-13,15l-3.7,4.9l-3.4,5.4l-3.1,5.8
	l-2.7,6.3l-1.4,4.4l-0.6,4l0.1,3.8l0.9,3.3l1.5,2.9l2.1,2.5l2.7,2.4l3.2,2l3.8,1.8l4.5,1.6l11.3,2.7l5.2,0.7l5,0.2l4.7-0.3l4.5-0.8
	l4.7-1.4l4.6-1.9l4.6-2.5l4.8-3.1l9.7-7.7l10.1-10.1l19.2-21.8l18.1-22.3l1.3-1.7l9.6-12.9l6.2-10.3l1.9-4.3l1-3.6l0.3-3.1l-0.6-2.6
	l-2.2-3.6l-3.5-3.4l-4.7-3.3l-5.3-2.6l-37.1-14.4l-0.8-0.1l-0.7,0.4L500.8,906.6z M821.5,876l0.3-0.8l-0.5-0.7l-0.2-0.1l-4.1-0.3
	l-0.2,0l-47.6,4.2l-53,5.6l-10,1.4l-9.1,1.7l-3.1,1.1l-2.2,1.8l0,0l-1.2,2.2l-0.5,2.8l0.6,2.1l2.9,3.6l3.3,3.1l0,0l0.4,0.3l7.1,4.9
	l8,4.3l8.6,3.5l8.6,2.5l8.4,1.5l7.9,0.4l7.6-0.6l6.7-1.7l6.1-2.6l7-3.7l7.8-4.8l8.6-6l16.1-12.3L821.5,876z M724.8,939.4l0.5-0.6
	l-0.5-0.6l-13.8-7.9l-12.9-6.9l-12.4-6.1l-12.4-5.5l-20.4-7.9l-8.8-2.6l-8-1.3L629,900l-6.5,1.4l-5.9,2.7l-5.5,4.1l-5.5,5.6
	l-5.3,7.1L588,940.1l-10.6,18.3l-2.5,5.4l-1.2,4.6l-0.1,4.1l1.1,3.2l2,2.5l2.8,1.8l3.7,1.4l4.7,0.9l5.6,0.3l6.4-0.2l7.2-0.8l7.2-1.3
	l22.1-5.3l21.3-6.1l20.4-6.9l19.5-7.7l14.2-6.8L724.8,939.4z"/>
</svg>
